<?xml version="1.0" encoding="UTF-8" standalone="no"?>
<!-- Generator: Adobe Illustrator 16.0.0, SVG Export Plug-In . SVG Version: 6.00 Build 0)  -->

<svg
   xmlns:dc="http://purl.org/dc/elements/1.1/"
   xmlns:cc="http://creativecommons.org/ns#"
   xmlns:rdf="http://www.w3.org/1999/02/22-rdf-syntax-ns#"
   xmlns:svg="http://www.w3.org/2000/svg"
   xmlns="http://www.w3.org/2000/svg"
   xmlns:sodipodi="http://sodipodi.sourceforge.net/DTD/sodipodi-0.dtd"
   xmlns:inkscape="http://www.inkscape.org/namespaces/inkscape"
   version="1.2"
   x="0px"
   y="0px"
   width="100px"
   height="100px"
   viewBox="0 0 100 100"
   xml:space="preserve"
   id="svg2"
   inkscape:version="0.91 r13725"
   sodipodi:docname="Security group egress rule 2.svg"><metadata
     id="metadata31"><rdf:RDF><cc:Work
         rdf:about=""><dc:format>image/svg+xml</dc:format><dc:type
           rdf:resource="http://purl.org/dc/dcmitype/StillImage" /><dc:title /></cc:Work></rdf:RDF></metadata><defs
     id="defs29" /><sodipodi:namedview
     pagecolor="#ffffff"
     bordercolor="#666666"
     borderopacity="1"
     objecttolerance="10"
     gridtolerance="10"
     guidetolerance="10"
     inkscape:pageopacity="0"
     inkscape:pageshadow="2"
     inkscape:window-width="1920"
     inkscape:window-height="1016"
     id="namedview27"
     showgrid="false"
     inkscape:zoom="6.6642694"
     inkscape:cx="86.747659"
     inkscape:cy="39.295753"
     inkscape:window-x="0"
     inkscape:window-y="25"
     inkscape:window-maximized="1"
     inkscape:current-layer="g6" /><g
     id="Layer_3" /><g
     id="Layer_1"><g
       id="g6"><g
         id="g8"><path
           d="M50.001,21.335c15.285,0,27.678,12.289,27.678,27.473c0,15.17-12.393,27.473-27.678,27.473     c-15.283,0-27.68-12.303-27.68-27.473C22.321,33.624,34.718,21.335,50.001,21.335z"
           id="path10"
           fill="#F58536" /></g><g
         id="g12"><path
           fill="#9D5025"
           d="M74.29,61.987v2.387c-4.699,8.516-13.816,14.291-24.289,14.291c-15.283,0-27.68-12.303-27.68-27.471     v-2.387c0,15.17,12.396,27.473,27.68,27.473C60.474,76.28,69.591,70.501,74.29,61.987"
           id="path14" /><path
           fill="#9D5025"
           d="M77.679,48.808v2.387c0,1.332-0.096,2.641-0.279,3.926v-2.385C77.583,51.45,77.679,50.142,77.679,48.808"
           id="path16" /><path
           fill="#9D5025"
           d="M77.399,52.735v2.385c-0.223,1.518-0.564,2.998-1.021,4.426v-2.389     C76.835,55.731,77.177,54.251,77.399,52.735"
           id="path18" /><path
           fill="#9D5025"
           d="M76.378,57.157v2.389c-0.547,1.686-1.242,3.301-2.088,4.828v-2.387     C75.136,60.458,75.831,58.843,76.378,57.157"
           id="path20" /></g><path
         fill="#9D5025"
         d="M77.679,48.808v2.387c0,15.168-12.393,27.471-27.678,27.471c-15.283,0-27.68-12.303-27.68-27.471v-2.387    c0,15.17,12.396,27.473,27.68,27.473C65.286,76.28,77.679,63.978,77.679,48.808z"
         id="path22" /><path
         style="fill:#ffffff"
         d="m 56.455463,28.937346 c -3.356,0 -6.150051,2.5012 -6.481251,5.75 l 0,6.475 -9.557812,0 -3.353125,0 0,10.889062 19.573437,0 0,-10.889062 -3.257812,0 -0.284375,0 0,-1.560938 0.0047,0 0.02187,-4.914062 c 0,0 -0.0032,-3.0112 3.334375,-3 3.192,0.0096 3.334376,3 3.334376,3 l -0.02187,4.914062 3.168749,0 0,-4.914062 c -0.344,-3.236 -3.134049,-5.75 -6.481249,-5.75 z"
         id="path24"
         inkscape:connector-curvature="0" /><text
         xml:space="preserve"
         style="font-style:normal;font-variant:normal;font-weight:bold;font-stretch:normal;font-size:10px;line-height:125%;font-family:monospace;-inkscape-font-specification:'monospace Bold';letter-spacing:0px;word-spacing:0px;fill:#ffffff;fill-opacity:1;stroke:none;stroke-width:1px;stroke-linecap:butt;stroke-linejoin:miter;stroke-opacity:1"
         x="31.831055"
         y="61.987049"
         id="text3350"
         sodipodi:linespacing="125%"><tspan
           sodipodi:role="line"
           id="tspan3352"
           x="31.831055"
           y="61.987049">EGRESS</tspan></text>
</g></g><g
     id="nyt_x5F_exporter_x5F_info"
     display="none" /></svg>